<?xml version="1.0" encoding="UTF-8"?>
<!-- Generator: Adobe Illustrator 19.2.0, SVG Export Plug-In . SVG Version: 6.00 Build 0)  -->
<svg version="1.1" id="Layer_1" xmlns="http://www.w3.org/2000/svg" xmlns:xlink="http://www.w3.org/1999/xlink" x="0px" y="0px" viewBox="0 0 1010 358" style="enable-background:new 0 0 1010 358;" xml:space="preserve">
<style type="text/css">
	.st0{fill:#FFFFFF;}
	.st1{display:none;fill:#FFFFFF;}
</style>
<g>
	<path class="st0" d="M407.3,168.1c-1.5-2.4-3.4-4.5-5.6-6.4c-2.3-1.8-4.8-3.2-7.6-4.3c-2.8-1-5.8-1.5-8.9-1.5   c-5.7,0-10.5,1.1-14.5,3.3c-4,2.2-7.2,5.1-9.7,8.9c-2.5,3.7-4.3,7.9-5.4,12.6s-1.7,9.6-1.7,14.6c0,4.8,0.6,9.5,1.7,14.1   s2.9,8.7,5.4,12.3c2.5,3.6,5.7,6.6,9.7,8.8c4,2.2,8.8,3.3,14.5,3.3c7.7,0,13.8-2.4,18.1-7.1c4.3-4.7,7-10.9,8-18.7h24.5   c-0.6,7.2-2.3,13.7-5,19.5s-6.2,10.7-10.6,14.8c-4.4,4.1-9.5,7.2-15.4,9.3c-5.9,2.1-12.4,3.2-19.5,3.2c-8.8,0-16.7-1.5-23.7-4.6   s-13-7.3-17.8-12.6c-4.8-5.4-8.5-11.7-11.1-18.9c-2.6-7.2-3.9-15-3.9-23.4c0-8.6,1.3-16.5,3.9-23.9c2.6-7.3,6.3-13.8,11.1-19.2   c4.8-5.5,10.8-9.8,17.8-12.9s14.9-4.7,23.7-4.7c6.3,0,12.3,0.9,17.9,2.7c5.6,1.8,10.7,4.5,15.1,8c4.5,3.5,8.1,7.8,11,13   c2.9,5.1,4.7,11.1,5.5,17.7h-24.5C409.7,173.2,408.8,170.5,407.3,168.1z"/>
	<path class="st0" d="M449.4,194.7c0.3-5.4,1.7-9.8,4-13.4c2.4-3.5,5.4-6.4,9-8.5c3.6-2.1,7.7-3.7,12.3-4.6s9.1-1.4,13.8-1.4   c4.2,0,8.4,0.3,12.7,0.9s8.2,1.7,11.7,3.5c3.5,1.7,6.4,4.1,8.7,7.2s3.4,7.1,3.4,12.1v43.3c0,3.8,0.2,7.3,0.6,10.8   c0.4,3.4,1.2,6,2.3,7.7h-23.2c-0.4-1.3-0.8-2.6-1-3.9c-0.3-1.3-0.5-2.7-0.6-4.1c-3.6,3.8-7.9,6.4-12.9,7.9   c-4.9,1.5-10,2.3-15.1,2.3c-4,0-7.7-0.5-11.1-1.4c-3.4-1-6.4-2.5-9-4.5c-2.6-2-4.6-4.6-6-7.7s-2.2-6.8-2.2-11.1   c0-4.7,0.8-8.6,2.5-11.7s3.8-5.5,6.4-7.3c2.6-1.8,5.6-3.2,9-4.1s6.8-1.6,10.2-2.2c3.4-0.5,6.8-1,10.1-1.3s6.3-0.8,8.9-1.4   c2.6-0.6,4.6-1.6,6.1-2.8c1.5-1.2,2.2-3,2.1-5.4c0-2.5-0.4-4.4-1.2-5.9c-0.8-1.4-1.9-2.6-3.2-3.4s-2.9-1.3-4.7-1.6   c-1.8-0.3-3.7-0.4-5.7-0.4c-4.5,0-8,1-10.6,2.9s-4.1,5.1-4.5,9.7h-22.8V194.7z M502.2,211.6c-1,0.9-2.2,1.5-3.6,2   c-1.4,0.5-3,0.9-4.7,1.2c-1.7,0.3-3.4,0.6-5.2,0.8c-1.8,0.2-3.6,0.5-5.5,0.8c-1.7,0.3-3.4,0.8-5.1,1.3c-1.7,0.5-3.1,1.3-4.3,2.2   c-1.2,0.9-2.2,2.1-3,3.5s-1.1,3.2-1.1,5.3c0,2,0.4,3.8,1.1,5.1c0.7,1.4,1.8,2.5,3.1,3.3s2.8,1.4,4.5,1.7c1.7,0.3,3.5,0.5,5.3,0.5   c4.5,0,8-0.7,10.5-2.3c2.5-1.5,4.3-3.3,5.5-5.4s1.9-4.2,2.2-6.4c0.3-2.1,0.4-3.9,0.4-5.1v-8.5H502.2z"/>
	<path class="st0" d="M564.5,169.2v15.4h0.3c1.1-2.6,2.5-5,4.3-7.2s3.9-4.1,6.3-5.6c2.4-1.6,4.9-2.8,7.6-3.6   c2.7-0.9,5.5-1.3,8.4-1.3c1.5,0,3.2,0.3,5,0.8V189c-1.1-0.2-2.4-0.4-3.9-0.6s-3-0.2-4.3-0.2c-4.2,0-7.7,0.7-10.6,2.1   c-2.9,1.4-5.2,3.3-7,5.7c-1.8,2.4-3,5.2-3.8,8.4c-0.8,3.2-1.1,6.7-1.1,10.5v37.5h-22.9v-83.2H564.5z"/>
	<path class="st0" d="M626.9,232.4c3.4,3.3,8.4,5,14.8,5c4.6,0,8.6-1.2,11.9-3.5c3.3-2.3,5.4-4.7,6.1-7.3h20.1   c-3.2,10-8.2,17.1-14.8,21.4c-6.7,4.3-14.7,6.4-24.1,6.4c-6.5,0-12.4-1-17.7-3.1s-9.7-5.1-13.4-8.9c-3.6-3.9-6.5-8.5-8.4-13.8   c-2-5.4-3-11.3-3-17.7c0-6.2,1-12,3.1-17.4c2-5.4,4.9-10,8.7-13.9s8.2-7,13.4-9.3s11-3.4,17.3-3.4c7.1,0,13.2,1.4,18.5,4.1   s9.6,6.4,13,11s5.8,9.9,7.3,15.8s2,12.1,1.6,18.5h-60C621.6,223.7,623.5,229.1,626.9,232.4z M652.7,188.6c-2.7-3-6.9-4.5-12.5-4.5   c-3.6,0-6.7,0.6-9.1,1.9c-2.4,1.2-4.3,2.8-5.8,4.6c-1.4,1.8-2.5,3.8-3.1,5.8s-0.9,3.9-1,5.5h37.2   C657.4,196,655.5,191.6,652.7,188.6z"/>
	<path class="st0" d="M766.4,252.4l-14.8-55.8h-0.3l-14.2,55.8h-23.7L687,169.2h24.1l15.3,56.5h0.3l13.8-56.5h22.2l14.2,56.3h0.3   l15.3-56.3H816l-26.2,83.2L766.4,252.4L766.4,252.4z"/>
	<path class="st0" d="M850.3,232.4c3.4,3.3,8.4,5,14.8,5c4.6,0,8.6-1.2,11.9-3.5c3.3-2.3,5.4-4.7,6.1-7.3h20.1   c-3.2,10-8.2,17.1-14.8,21.4c-6.7,4.3-14.7,6.4-24.1,6.4c-6.5,0-12.4-1-17.7-3.1s-9.7-5.1-13.4-8.9c-3.6-3.9-6.5-8.5-8.4-13.8   c-2-5.4-3-11.3-3-17.7c0-6.2,1-12,3.1-17.4c2-5.4,4.9-10,8.7-13.9s8.2-7,13.4-9.3s11-3.4,17.3-3.4c7.1,0,13.2,1.4,18.5,4.1   s9.6,6.4,13,11s5.8,9.9,7.3,15.8s2,12.1,1.6,18.5h-60C845,223.7,846.8,229.1,850.3,232.4z M876.1,188.6c-2.7-3-6.9-4.5-12.5-4.5   c-3.6,0-6.7,0.6-9.1,1.9c-2.4,1.2-4.3,2.8-5.8,4.6c-1.4,1.8-2.5,3.8-3.1,5.8s-0.9,3.9-1,5.5h37.2   C880.7,196,878.8,191.6,876.1,188.6z"/>
	<path class="st0" d="M941,137.5v41.8h0.3c2.8-4.3,6.6-7.4,11.3-9.4c4.8-2,9.7-3,14.9-3c4.2,0,8.3,0.9,12.4,2.6s7.7,4.3,11,7.9   c3.3,3.5,5.9,8.1,8,13.6c2,5.5,3.1,12.1,3.1,19.7s-1,14.2-3.1,19.7c-2,5.5-4.7,10.1-8,13.6s-6.9,6.2-11,7.9   c-4.1,1.7-8.2,2.6-12.4,2.6c-6.1,0-11.6-1-16.4-2.9c-4.8-1.9-8.5-5.2-10.9-9.8h-0.3v10.6h-21.7V137.5H941z M978,200.7   c-0.8-3.2-1.9-6.1-3.5-8.5c-1.6-2.5-3.6-4.4-6-5.9c-2.4-1.4-5.3-2.2-8.8-2.2c-3.3,0-6.2,0.7-8.7,2.2c-2.5,1.4-4.5,3.4-6.1,5.9   s-2.8,5.3-3.5,8.5c-0.8,3.2-1.1,6.6-1.1,10.1c0,3.4,0.4,6.8,1.1,10c0.7,3.2,1.9,6.1,3.5,8.5c1.6,2.5,3.6,4.4,6.1,5.9   c2.5,1.4,5.4,2.2,8.7,2.2c3.4,0,6.4-0.7,8.8-2.2c2.4-1.4,4.4-3.4,6-5.9s2.8-5.3,3.5-8.5s1.1-6.5,1.1-10   C979.2,207.3,978.8,203.9,978,200.7z"/>
</g>
<g>
	<path class="st1" d="M259,177.1c0,43.7-38.5,79.1-85.9,79.1s-85.9-35.4-85.9-79.1S125.7,98,173.1,98S259,133.4,259,177.1z"/>
	<g>
		<path class="st0" d="M98.8,147.7c0,0,22.1-17.9,58.8-29.8c24.2-7.9,51-9.7,55.9-10.1c1.4-0.1-4-2.1-4-2.1s-24.3-7.9-52.1,0    C112.9,118.4,98.8,147.7,98.8,147.7z"/>
		<path class="st0" d="M92.4,162.1c0,0,26.5-23.1,70.8-36.8c44.3-13.7,64.8-9.4,66.3-9.8c1.4,0.4,10.9,8.7,10.9,8.7    s-34.4,0.6-63.8,8.7c-49.2,13.7-86.3,36.8-86.3,36.8L92.4,162.1z"/>
		<path class="st0" d="M88.7,178.6c0,0,22.8-8.8,49.4-19.1c35.6-13.8,63.4-19.5,74.7-20.9c19.7-2.4,37.5-1.1,37.5-1.1    s4.5,10.4,4.5,11.3c-1.4,0.5-30.5,0.5-50.4,5c-21.4,4.9-26.9,6.6-49.9,14.2c-19.5,6.4-65.7,18.1-65.7,18.1"/>
		<path class="st0" d="M89.8,195.6c3.6,0,2,0.1,6.8-0.5c4.9-0.6,22.7-3,47.2-9.6c43.4-11.6,46.2-13.3,76.2-20.4    c29.9-7.1,34.2-6.8,36.7-6.8c0.7,0.1,1.1,10.3,1.1,10.3s-18.2,3.9-34.7,8.9c-14,5-61.2,20.8-80.6,24.4c-8.8,1.6-16.9,3.1-31,4.4    c-11.6,1.1-19.2-0.3-19.2-0.3S90.2,199.5,89.8,195.6z"/>
		<path class="st0" d="M97.7,217.7c4,0,29-0.2,39-1.5c18.3-2.4,25.2-4.1,40.2-8.5c21.6-6.3,80.8-32.3,80.8-32.3l-0.9,8.5    c0,0-32.7,19-64.8,30.5c-29.6,10.6-47,13.4-59.2,14.5c-10.1,0.9-26.4,0.4-26.4,0.4S99.1,221.1,97.7,217.7z"/>
		<path class="st0" d="M119.4,240.6c0,0,21.1-1.1,40.2-5.4c12-2.7,29.6-7.6,49.1-16.2c25.6-11.3,42.7-25.1,46.6-28.2    c-0.6,6.3-8.6,15.7-8.6,15.7s0.3,1-18.9,12.5c-22.8,13.6-43.4,19.6-43.4,19.6s-15.4,5.3-28.1,7.1c-14.1,2-14.5,2-18.2,1.4    C135.3,246.6,119.4,240.6,119.4,240.6z"/>
		<path class="st0" d="M176.6,251.2c-3,0-5.2-0.6-5.2-0.6s19.1-4.5,29.5-9.7c11.6-5.8,26.7-15.8,26.7-15.8s-1.8,3-6.6,7.4    c-2.7,2.5-7.2,6.5-10.5,8.5c-9.2,5.7-16.5,7.9-22.4,9C184.9,250.6,180.2,251.2,176.6,251.2z"/>
	</g>
</g>
<path class="st0" d="M145.9,301.6c-48.8,7.9-89.8-1.7-109.3-30.4C1.4,219.3,50,124.9,145,60.4c0.3-0.2,0.6-0.4,0.9-0.6  c7.5-5.1,15.1-9.8,22.6-14.1c-7.6,3.8-15.1,7.9-22.6,12.4c-6.7,4-13.3,8.1-19.9,12.6C30.9,135.2-17.6,229.6,17.6,281.5  c22,32.4,71.3,40.6,128.3,26.5c26.9-6.6,55.5-18.2,83.8-34.5C200.9,287.9,172.3,297.3,145.9,301.6z"/>
</svg>